<?xml version="1.0" encoding="UTF-8"?>
<svg viewBox="0 0 3888 3684" xmlns="http://www.w3.org/2000/svg">
<title>cryptocurrency logo</title>
<metadata>
<x:xmpmeta x:xmptk="Adobe XMP Core 5.6-c138 79.159824, 2016/09/14-01:09:01        " xmlns:x="adobe:ns:meta/">
<rdf:RDF xmlns:rdf="http://www.w3.org/1999/02/22-rdf-syntax-ns#">
<rdf:Description rdf:about="" xmlns:dc="http://purl.org/dc/elements/1.1/" xmlns:xmp="http://ns.adobe.com/xap/1.0/" xmlns:xmpRights="http://ns.adobe.com/xap/1.0/rights/">
<dc:creator>
<rdf:Seq>
<rdf:li>Johnson S. Rice</rdf:li>
</rdf:Seq>
</dc:creator>
<dc:title>
<rdf:Alt>
<rdf:li xml:lang="x-default">cryptocurrency logo</rdf:li>
</rdf:Alt>
</dc:title>
<dc:rights>
<rdf:Alt>
<rdf:li xml:lang="x-default">Copyleft - Attribution Appreciated but not neccessary. Open Source - Free for commercial use and or modification.</rdf:li>
</rdf:Alt>
</dc:rights>
<xmp:CreatorTool>Adobe Photoshop CC 2017 (Windows)</xmp:CreatorTool>
<xmpRights:Marked>False</xmpRights:Marked>
<xmpRights:WebStatement>https://creativecommons.org/publicdomain/zero/1.0/</xmpRights:WebStatement>
</rdf:Description>
</rdf:RDF>
</x:xmpmeta>
</metadata>
<defs>
<style>.cls-1 {
        fill: red;
        fill-rule: evenodd;
      }</style>
</defs>
<path class="cls-1" transform="translate(-481 -570)" d="m3420.6 1768.9c-221.3-372.11-625.64-599.59-1087.9-599.59-699.74 0-1245.3 538.43-1245.3 1242.7s545.6 1296.9 1245.3 1296.9c462.22 0 866.56-270.82 1087.9-642.93h634.24c-262.11 694.44-940.2 1188-1722.1 1188-1010.7 0-1851.8-824.69-1851.8-1842s841.03-1842 1851.8-1842c781.9 0 1460 504.43 1722.1 1198.9h-634.24zm948.38 426.43-638.98 455.08h-801.66c-93.37 240.88-327.09 411.74-600.84 411.74-355.89 0-644.39-288.64-644.39-644.7s288.5-644.7 644.39-644.7c277.87 0 514.64 175.96 605.11 422.58h1436.4z" data-name="Crypto Logo"/>
</svg>
