<?xml version="1.0" encoding="UTF-8"?>
<svg width="2500" height="2500" viewBox=".847 .876 329.25 329.26" xmlns="http://www.w3.org/2000/svg">
<title>Litecoin</title>
<path d="m330.1 165.5c0 90.922-73.705 164.63-164.63 164.63-90.922 0-164.63-73.707-164.63-164.63 0-90.921 73.706-164.63 164.63-164.63 90.92 0 164.63 73.706 164.63 164.63" fill="#bebebe"/>
<path d="m295.15 165.5c0 71.613-58.057 129.68-129.67 129.68-71.616 0-129.68-58.062-129.68-129.68 0-71.619 58.061-129.68 129.68-129.68 71.618 0 129.67 58.057 129.67 129.68" fill="#bebebe"/>
<path d="m155.85 209.48 10.693-40.264 25.316-9.249 6.297-23.663-0.215-0.587-24.92 9.104 17.955-67.608h-50.921l-23.481 88.23-19.605 7.162-6.478 24.395 19.59-7.156-13.839 51.998h135.52l8.688-32.362h-84.601" fill="#fff"/>
</svg>
